<?xml version="1.0" encoding="UTF-8" standalone="no"?>
<!-- Created with Inkscape (http://www.inkscape.org/) -->

<svg
   xmlns:dc="http://purl.org/dc/elements/1.1/"
   xmlns:cc="http://creativecommons.org/ns#"
   xmlns:rdf="http://www.w3.org/1999/02/22-rdf-syntax-ns#"
   xmlns:svg="http://www.w3.org/2000/svg"
   xmlns="http://www.w3.org/2000/svg"
   xmlns:sodipodi="http://sodipodi.sourceforge.net/DTD/sodipodi-0.dtd"
   xmlns:inkscape="http://www.inkscape.org/namespaces/inkscape"
   version="1.1"
   id="svg2"
   xml:space="preserve"
   width="194.87772"
   height="183.65857"
   viewBox="0 0 194.87772 183.65856"
   sodipodi:docname="cmos_invertitore.svg"
   inkscape:version="0.92.1 r"><metadata
     id="metadata8"><rdf:RDF><cc:Work
         rdf:about=""><dc:format>image/svg+xml</dc:format><dc:type
           rdf:resource="http://purl.org/dc/dcmitype/StillImage" /><dc:title></dc:title></cc:Work></rdf:RDF></metadata><defs
     id="defs6" /><sodipodi:namedview
     pagecolor="#ffffff"
     bordercolor="#666666"
     borderopacity="1"
     objecttolerance="10"
     gridtolerance="10"
     guidetolerance="10"
     inkscape:pageopacity="0"
     inkscape:pageshadow="2"
     inkscape:window-width="1920"
     inkscape:window-height="1025"
     id="namedview4"
     showgrid="false"
     inkscape:zoom="5.6568542"
     inkscape:cx="83.018151"
     inkscape:cy="130.48457"
     inkscape:window-x="0"
     inkscape:window-y="27"
     inkscape:window-maximized="1"
     inkscape:current-layer="g10"
     fit-margin-top="0"
     fit-margin-left="0"
     fit-margin-right="0"
     fit-margin-bottom="0" /><g
     id="g10"
     inkscape:groupmode="layer"
     inkscape:label="invertitore_cmos"
     transform="matrix(0.47999999,0,0,0.47999999,15.004062,-16.991119)"><path
       d="m 184,336 h 40"
       style="fill:none;stroke:#000000;stroke-width:4;stroke-linecap:round;stroke-linejoin:miter;stroke-miterlimit:10;stroke-dasharray:none;stroke-opacity:1"
       id="path12"
       inkscape:connector-curvature="0" /><path
       d="m 224,336 -16,8 v -16"
       style="fill:#000000;fill-opacity:1;fill-rule:evenodd;stroke:none"
       id="path14"
       inkscape:connector-curvature="0" /><path
       d="m 184,288 h 40"
       style="fill:none;stroke:#000000;stroke-width:4;stroke-linecap:round;stroke-linejoin:miter;stroke-miterlimit:10;stroke-dasharray:none;stroke-opacity:1"
       id="path16"
       inkscape:connector-curvature="0" /><path
       d="M 224,288 V 272"
       style="fill:none;stroke:#000000;stroke-width:4;stroke-linecap:round;stroke-linejoin:miter;stroke-miterlimit:10;stroke-dasharray:none;stroke-opacity:1"
       id="path18"
       inkscape:connector-curvature="0" /><path
       d="m 224,336 v 16"
       style="fill:none;stroke:#000000;stroke-width:4;stroke-linecap:round;stroke-linejoin:miter;stroke-miterlimit:10;stroke-dasharray:none;stroke-opacity:1"
       id="path20"
       inkscape:connector-curvature="0" /><path
       d="m 144,312 h 32"
       style="fill:none;stroke:#000000;stroke-width:4;stroke-linecap:round;stroke-linejoin:miter;stroke-miterlimit:10;stroke-dasharray:none;stroke-opacity:1"
       id="path22"
       inkscape:connector-curvature="0" /><path
       d="m 176,288 v 48"
       style="fill:none;stroke:#000000;stroke-width:4;stroke-linecap:round;stroke-linejoin:miter;stroke-miterlimit:10;stroke-dasharray:none;stroke-opacity:1"
       id="path24"
       inkscape:connector-curvature="0" /><path
       d="m 184,280 v 64"
       style="fill:none;stroke:#000000;stroke-width:4;stroke-linecap:round;stroke-linejoin:miter;stroke-miterlimit:10;stroke-dasharray:none;stroke-opacity:1"
       id="path26"
       inkscape:connector-curvature="0" /><path
       d="M 224,336 H 208"
       style="fill:none;stroke:#000000;stroke-width:4;stroke-linecap:round;stroke-linejoin:miter;stroke-miterlimit:10;stroke-dasharray:none;stroke-opacity:1"
       id="path28"
       inkscape:connector-curvature="0" /><path
       d="M 184,184 V 120"
       style="fill:none;stroke:#000000;stroke-width:4;stroke-linecap:round;stroke-linejoin:miter;stroke-miterlimit:10;stroke-dasharray:none;stroke-opacity:1"
       id="path30"
       inkscape:connector-curvature="0" /><path
       d="m 184,176 h 40"
       style="fill:none;stroke:#000000;stroke-width:4;stroke-linecap:round;stroke-linejoin:miter;stroke-miterlimit:10;stroke-dasharray:none;stroke-opacity:1"
       id="path32"
       inkscape:connector-curvature="0" /><path
       d="m 224,176 v 16"
       style="fill:none;stroke:#000000;stroke-width:4;stroke-linecap:round;stroke-linejoin:miter;stroke-miterlimit:10;stroke-dasharray:none;stroke-opacity:1"
       id="path34"
       inkscape:connector-curvature="0" /><path
       d="m 184,128 h 40"
       style="fill:none;stroke:#000000;stroke-width:4;stroke-linecap:round;stroke-linejoin:miter;stroke-miterlimit:10;stroke-dasharray:none;stroke-opacity:1"
       id="path36"
       inkscape:connector-curvature="0" /><path
       d="m 184,128 16,-8 v 16"
       style="fill:#000000;fill-opacity:1;fill-rule:evenodd;stroke:none"
       id="path38"
       inkscape:connector-curvature="0" /><path
       d="M 224,128 V 112"
       style="fill:none;stroke:#000000;stroke-width:4;stroke-linecap:round;stroke-linejoin:miter;stroke-miterlimit:10;stroke-dasharray:none;stroke-opacity:1"
       id="path40"
       inkscape:connector-curvature="0" /><path
       d="m 144,152 h 32"
       style="fill:none;stroke:#000000;stroke-width:4;stroke-linecap:round;stroke-linejoin:miter;stroke-miterlimit:10;stroke-dasharray:none;stroke-opacity:1"
       id="path42"
       inkscape:connector-curvature="0" /><path
       d="M 176,176 V 128"
       style="fill:none;stroke:#000000;stroke-width:4;stroke-linecap:round;stroke-linejoin:miter;stroke-miterlimit:10;stroke-dasharray:none;stroke-opacity:1"
       id="path44"
       inkscape:connector-curvature="0" /><path
       d="M 144,152 H 104"
       style="fill:none;stroke:#000000;stroke-width:4;stroke-linecap:round;stroke-linejoin:miter;stroke-miterlimit:10;stroke-dasharray:none;stroke-opacity:1"
       id="path46"
       inkscape:connector-curvature="0" /><path
       d="M 104,152 V 312"
       style="fill:none;stroke:#000000;stroke-width:4;stroke-linecap:round;stroke-linejoin:miter;stroke-miterlimit:10;stroke-dasharray:none;stroke-opacity:1"
       id="path48"
       inkscape:connector-curvature="0" /><path
       d="m 104,312 h 40"
       style="fill:none;stroke:#000000;stroke-width:4;stroke-linecap:round;stroke-linejoin:miter;stroke-miterlimit:10;stroke-dasharray:none;stroke-opacity:1"
       id="path50"
       inkscape:connector-curvature="0" /><path
       d="m 224,192 v 80"
       style="fill:none;stroke:#000000;stroke-width:4;stroke-linecap:round;stroke-linejoin:miter;stroke-miterlimit:10;stroke-dasharray:none;stroke-opacity:1"
       id="path52"
       inkscape:connector-curvature="0" /><path
       d="m 224,392 v 16"
       style="fill:none;stroke:#000000;stroke-width:4;stroke-linecap:round;stroke-linejoin:miter;stroke-miterlimit:10;stroke-dasharray:none;stroke-opacity:1"
       id="path54"
       inkscape:connector-curvature="0" /><path
       d="m 208,408 h 32"
       style="fill:none;stroke:#000000;stroke-width:4;stroke-linecap:round;stroke-linejoin:miter;stroke-miterlimit:10;stroke-dasharray:none;stroke-opacity:1"
       id="path56"
       inkscape:connector-curvature="0" /><path
       d="m 208,408 -8,8"
       style="fill:none;stroke:#000000;stroke-width:4;stroke-linecap:round;stroke-linejoin:miter;stroke-miterlimit:10;stroke-dasharray:none;stroke-opacity:1"
       id="path58"
       inkscape:connector-curvature="0" /><path
       d="m 224,408 -8,8"
       style="fill:none;stroke:#000000;stroke-width:4;stroke-linecap:round;stroke-linejoin:miter;stroke-miterlimit:10;stroke-dasharray:none;stroke-opacity:1"
       id="path60"
       inkscape:connector-curvature="0" /><path
       d="m 240,408 -8,8"
       style="fill:none;stroke:#000000;stroke-width:4;stroke-linecap:round;stroke-linejoin:miter;stroke-miterlimit:10;stroke-dasharray:none;stroke-opacity:1"
       id="path62"
       inkscape:connector-curvature="0" /><path
       d="m 264,232 h 8"
       style="fill:none;stroke:#000000;stroke-width:4;stroke-linecap:round;stroke-linejoin:miter;stroke-miterlimit:10;stroke-dasharray:none;stroke-opacity:1"
       id="path72"
       inkscape:connector-curvature="0" /><path
       d="m 304,232 v 0 l -8,-8 h -24 v 16 h 24 z"
       style="fill:none;stroke:#000000;stroke-width:4;stroke-linecap:round;stroke-linejoin:miter;stroke-miterlimit:10;stroke-dasharray:none;stroke-opacity:1"
       id="path74"
       inkscape:connector-curvature="0" /><path
       d="m 56,232 h 8"
       style="fill:none;stroke:#000000;stroke-width:4;stroke-linecap:round;stroke-linejoin:miter;stroke-miterlimit:10;stroke-dasharray:none;stroke-opacity:1"
       id="path76"
       inkscape:connector-curvature="0" /><path
       d="m 56,232 v 0 l -8,-8 H 24 v 16 h 24 z"
       style="fill:none;stroke:#000000;stroke-width:4;stroke-linecap:round;stroke-linejoin:miter;stroke-miterlimit:10;stroke-dasharray:none;stroke-opacity:1"
       id="path78"
       inkscape:connector-curvature="0" /><path
       d="m 64,232 h 40"
       style="fill:none;stroke:#000000;stroke-width:4;stroke-linecap:round;stroke-linejoin:miter;stroke-miterlimit:10;stroke-dasharray:none;stroke-opacity:1"
       id="path80"
       inkscape:connector-curvature="0" /><path
       d="m 224,232 h 40"
       style="fill:none;stroke:#000000;stroke-width:4;stroke-linecap:round;stroke-linejoin:miter;stroke-miterlimit:10;stroke-dasharray:none;stroke-opacity:1"
       id="path82"
       inkscape:connector-curvature="0" /><path
       d="m 224,352 v 40"
       style="fill:none;stroke:#000000;stroke-width:4;stroke-linecap:round;stroke-linejoin:miter;stroke-miterlimit:10;stroke-dasharray:none;stroke-opacity:1"
       id="path86"
       inkscape:connector-curvature="0" /><path
       d="m 112,232 c 0.01,1.05 -0.15,1.56 -0.15,1.56 -0.2,1.04 -0.46,1.5 -0.46,1.5 -0.39,0.98 -0.74,1.38 -0.74,1.38 -0.58,0.89 -0.99,1.22 -0.99,1.22 -0.74,0.75 -1.22,0.99 -1.22,0.99 -0.87,0.6 -1.38,0.74 -1.38,0.74 -0.97,0.41 -1.5,0.46 -1.5,0.46 -1.03,0.21 -1.56,0.15 -1.56,0.15 -1.05,0.01 -1.56,-0.15 -1.56,-0.15 -1.04,-0.2 -1.5,-0.46 -1.5,-0.46 -0.98,-0.39 -1.38,-0.74 -1.38,-0.74 -0.89,-0.58 -1.22,-0.99 -1.22,-0.99 -0.75,-0.74 -0.99,-1.22 -0.99,-1.22 -0.6,-0.87 -0.74,-1.38 -0.74,-1.38 -0.41,-0.97 -0.46,-1.5 -0.46,-1.5 C 95.94,232.53 96,232 96,232 c -0.01,-1.05 0.15,-1.56 0.15,-1.56 0.2,-1.04 0.46,-1.5 0.46,-1.5 0.39,-0.98 0.74,-1.38 0.74,-1.38 0.58,-0.89 0.99,-1.22 0.99,-1.22 0.74,-0.75 1.22,-0.99 1.22,-0.99 0.87,-0.6 1.38,-0.74 1.38,-0.74 0.97,-0.41 1.5,-0.46 1.5,-0.46 1.03,-0.21 1.56,-0.15 1.56,-0.15 1.05,-0.01 1.56,0.15 1.56,0.15 1.04,0.2 1.5,0.46 1.5,0.46 0.98,0.39 1.38,0.74 1.38,0.74 0.89,0.58 1.22,0.99 1.22,0.99 0.75,0.74 0.99,1.22 0.99,1.22 0.6,0.87 0.74,1.38 0.74,1.38 0.41,0.97 0.46,1.5 0.46,1.5 0.21,1.03 0.15,1.56 0.15,1.56"
       style="fill:#000000;fill-opacity:1;fill-rule:nonzero;stroke:none"
       id="path88"
       inkscape:connector-curvature="0" /><path
       d="m 232,232 c 0.01,1.05 -0.15,1.56 -0.15,1.56 -0.2,1.04 -0.46,1.5 -0.46,1.5 -0.39,0.98 -0.74,1.38 -0.74,1.38 -0.58,0.89 -0.99,1.22 -0.99,1.22 -0.74,0.75 -1.22,0.99 -1.22,0.99 -0.87,0.6 -1.38,0.74 -1.38,0.74 -0.97,0.41 -1.5,0.46 -1.5,0.46 -1.03,0.21 -1.56,0.15 -1.56,0.15 -1.05,0.01 -1.56,-0.15 -1.56,-0.15 -1.04,-0.2 -1.5,-0.46 -1.5,-0.46 -0.98,-0.39 -1.38,-0.74 -1.38,-0.74 -0.89,-0.58 -1.22,-0.99 -1.22,-0.99 -0.75,-0.74 -0.99,-1.22 -0.99,-1.22 -0.6,-0.87 -0.74,-1.38 -0.74,-1.38 -0.41,-0.97 -0.46,-1.5 -0.46,-1.5 C 215.94,232.53 216,232 216,232 c -0.01,-1.05 0.15,-1.56 0.15,-1.56 0.2,-1.04 0.46,-1.5 0.46,-1.5 0.39,-0.98 0.74,-1.38 0.74,-1.38 0.58,-0.89 0.99,-1.22 0.99,-1.22 0.74,-0.75 1.22,-0.99 1.22,-0.99 0.87,-0.6 1.38,-0.74 1.38,-0.74 0.97,-0.41 1.5,-0.46 1.5,-0.46 1.03,-0.21 1.56,-0.15 1.56,-0.15 1.05,-0.01 1.56,0.15 1.56,0.15 1.04,0.2 1.5,0.46 1.5,0.46 0.98,0.39 1.38,0.74 1.38,0.74 0.89,0.58 1.22,0.99 1.22,0.99 0.75,0.74 0.99,1.22 0.99,1.22 0.6,0.87 0.74,1.38 0.74,1.38 0.41,0.97 0.46,1.5 0.46,1.5 0.21,1.03 0.15,1.56 0.15,1.56"
       style="fill:#000000;fill-opacity:1;fill-rule:nonzero;stroke:none"
       id="path90"
       inkscape:connector-curvature="0" /><g
       id="g5155"
       transform="translate(51.989173,3.3780604)"><text
         id="text5121"
         y="236.24529"
         x="-83.486351"
         style="font-style:normal;font-variant:normal;font-weight:normal;font-stretch:normal;font-size:30.55555725px;line-height:1.25;font-family:sans-serif;-inkscape-font-specification:sans-serif;letter-spacing:0px;word-spacing:0px;fill:#000000;fill-opacity:1;stroke:none;stroke-width:2.08333349"
         xml:space="preserve"><tspan
           style="stroke-width:2.08333349"
           y="236.24529"
           x="-83.486351"
           id="tspan5119"
           sodipodi:role="line">V</tspan></text>
<text
         id="text5125"
         y="242.51883"
         x="-64.665741"
         style="font-style:normal;font-variant:normal;font-weight:normal;font-stretch:normal;font-size:16.66666794px;line-height:1.25;font-family:sans-serif;-inkscape-font-specification:sans-serif;letter-spacing:0px;word-spacing:0px;fill:#000000;fill-opacity:1;stroke:none;stroke-width:2.08333349"
         xml:space="preserve"><tspan
           style="font-size:19.44444466px;stroke-width:2.08333349"
           y="242.51883"
           x="-64.665741"
           id="tspan5123"
           sodipodi:role="line">IN</tspan></text>
</g><g
       id="g5161"
       transform="translate(1.2711865,-4.3432205)"><text
         id="text5121-5"
         y="244.72865"
         x="313.16415"
         style="font-style:normal;font-variant:normal;font-weight:normal;font-stretch:normal;font-size:30.55555725px;line-height:1.25;font-family:sans-serif;-inkscape-font-specification:sans-serif;letter-spacing:0px;word-spacing:0px;fill:#000000;fill-opacity:1;stroke:none;stroke-width:2.08333349"
         xml:space="preserve"><tspan
           style="stroke-width:2.08333349"
           y="244.72865"
           x="313.16415"
           id="tspan5119-9"
           sodipodi:role="line">V</tspan></text>
<text
         id="text5125-4"
         y="251.00218"
         x="331.98474"
         style="font-style:normal;font-variant:normal;font-weight:normal;font-stretch:normal;font-size:16.66666794px;line-height:1.25;font-family:sans-serif;-inkscape-font-specification:sans-serif;letter-spacing:0px;word-spacing:0px;fill:#000000;fill-opacity:1;stroke:none;stroke-width:2.08333349"
         xml:space="preserve"><tspan
           style="font-size:19.44444466px;stroke-width:2.08333349"
           y="251.00218"
           x="331.98474"
           id="tspan5123-9"
           sodipodi:role="line">OUT</tspan></text>
</g><path
       d="M 224,72.000004 V 112"
       style="fill:none;stroke:#000000;stroke-width:4;stroke-linecap:round;stroke-linejoin:miter;stroke-miterlimit:10;stroke-dasharray:none;stroke-opacity:1"
       id="path126"
       inkscape:connector-curvature="0" /><path
       d="m 184,72.000004 h 80"
       style="fill:none;stroke:#000000;stroke-width:4;stroke-linecap:round;stroke-linejoin:miter;stroke-miterlimit:10;stroke-dasharray:none;stroke-opacity:1"
       id="path128"
       inkscape:connector-curvature="0" /><g
       id="g5155-1-6"
       transform="translate(282.43688,-178.572)"><text
         id="text5121-59-5"
         y="236.24529"
         x="-83.486351"
         style="font-style:normal;font-variant:normal;font-weight:normal;font-stretch:normal;font-size:30.55555725px;line-height:1.25;font-family:sans-serif;-inkscape-font-specification:sans-serif;letter-spacing:0px;word-spacing:0px;fill:#000000;fill-opacity:1;stroke:none;stroke-width:2.08333349"
         xml:space="preserve"><tspan
           style="stroke-width:2.08333349"
           y="236.24529"
           x="-83.486351"
           id="tspan5119-7-6"
           sodipodi:role="line">V</tspan></text>
<text
         id="text5125-7-3"
         y="242.51883"
         x="-64.665741"
         style="font-style:normal;font-variant:normal;font-weight:normal;font-stretch:normal;font-size:16.66666794px;line-height:1.25;font-family:sans-serif;-inkscape-font-specification:sans-serif;letter-spacing:0px;word-spacing:0px;fill:#000000;fill-opacity:1;stroke:none;stroke-width:2.08333349"
         xml:space="preserve"><tspan
           style="font-size:19.44444466px;stroke-width:2.08333349"
           y="242.51883"
           x="-64.665741"
           id="tspan5123-6-9"
           sodipodi:role="line">DD</tspan></text>
</g></g></svg>