<?xml version="1.0" encoding="UTF-8" standalone="no"?>
<svg
   xmlns:dc="http://purl.org/dc/elements/1.1/"
   xmlns:cc="http://creativecommons.org/ns#"
   xmlns:rdf="http://www.w3.org/1999/02/22-rdf-syntax-ns#"
   xmlns:svg="http://www.w3.org/2000/svg"
   xmlns="http://www.w3.org/2000/svg"
   xmlns:xlink="http://www.w3.org/1999/xlink"
   xmlns:sodipodi="http://sodipodi.sourceforge.net/DTD/sodipodi-0.dtd"
   xmlns:inkscape="http://www.inkscape.org/namespaces/inkscape"
   id="svg362"
   version="1.1"
   viewBox="0 0 447.14621 298.48145"
   height="298.48145"
   width="447.14621"
   sodipodi:docname="nmos_caratteristica_vgs_vds_esempio.svg"
   inkscape:version="0.92.1 r">
  <sodipodi:namedview
     pagecolor="#ffffff"
     bordercolor="#666666"
     borderopacity="1"
     objecttolerance="10"
     gridtolerance="10"
     guidetolerance="10"
     inkscape:pageopacity="0"
     inkscape:pageshadow="2"
     inkscape:window-width="1920"
     inkscape:window-height="1025"
     id="namedview170"
     showgrid="false"
     inkscape:zoom="3.1880563"
     inkscape:cx="226.77839"
     inkscape:cy="194.4131"
     inkscape:window-x="0"
     inkscape:window-y="27"
     inkscape:window-maximized="1"
     inkscape:current-layer="svg362" />
  <metadata
     id="metadata366">
    <rdf:RDF>
      <cc:Work
         rdf:about="">
        <dc:format>image/svg+xml</dc:format>
        <dc:type
           rdf:resource="http://purl.org/dc/dcmitype/StillImage" />
        <dc:title />
      </cc:Work>
    </rdf:RDF>
  </metadata>
  <desc
     id="desc2">Produced by GNUPLOT 4.4 patchlevel 3 </desc>
  <defs
     id="defs18" />
  <g
     transform="translate(-15.469792,-10.192)"
     id="g20"
     style="color:#ffffff;fill:none;stroke:currentColor;stroke-width:1;stroke-linecap:butt;stroke-linejoin:miter" />
  <g
     transform="translate(-15.469792,-10.192)"
     id="g22"
     style="color:#000000;fill:none;stroke:currentColor;stroke-width:1;stroke-linecap:butt;stroke-linejoin:miter" />
  <g
     transform="translate(-15.469792,-10.192)"
     id="g26"
     style="color:#808080;fill:none;stroke:currentColor;stroke-width:1;stroke-linecap:butt;stroke-linejoin:miter">
    <path
       id="path24"
       d="M 63.6,262.4 H 455" />
  </g>
  <g
     transform="translate(-15.469792,-10.192)"
     id="g38"
     style="color:#000000;fill:none;stroke:currentColor;stroke-width:1;stroke-linecap:butt;stroke-linejoin:miter">
    <path
       id="path28"
       d="m 63.6,262.4 h 9 m 382.4,0 h -9" />
    <g
       id="g34"
       style="font-size:16px;font-family:Times;text-anchor:end;fill:#000000;stroke:none"
       transform="translate(55.3,266.9)">
      <text
         id="text32">
        <tspan
           id="tspan30">0</tspan>
      </text>
    </g>
    <path
       id="path36"
       d="m 63.6,252.6 h 4.5 m 386.9,0 h -4.5 M 63.6,242.7 h 4.5 m 386.9,0 h -4.5 M 63.6,232.9 h 4.5 m 386.9,0 h -4.5 M 63.6,223.1 h 4.5 m 386.9,0 h -4.5" />
  </g>
  <g
     transform="translate(-15.469792,-10.192)"
     id="g42"
     style="color:#808080;fill:none;stroke:currentColor;stroke-width:1;stroke-linecap:butt;stroke-linejoin:miter">
    <path
       id="path40"
       d="M 63.6,213.3 H 455" />
  </g>
  <g
     transform="translate(-15.469792,-10.192)"
     id="g54"
     style="color:#000000;fill:none;stroke:currentColor;stroke-width:1;stroke-linecap:butt;stroke-linejoin:miter">
    <path
       id="path44"
       d="m 63.6,213.3 h 9 m 382.4,0 h -9" />
    <g
       id="g50"
       style="font-size:16px;font-family:Times;text-anchor:end;fill:#000000;stroke:none"
       transform="translate(55.3,217.8)">
      <text
         id="text48">
        <tspan
           id="tspan46">10</tspan>
      </text>
    </g>
    <path
       id="path52"
       d="m 63.6,203.4 h 4.5 m 386.9,0 h -4.5 M 63.6,193.6 h 4.5 m 386.9,0 h -4.5 M 63.6,183.8 h 4.5 m 386.9,0 h -4.5 M 63.6,173.9 h 4.5 m 386.9,0 h -4.5" />
  </g>
  <g
     transform="translate(-15.469792,-10.192)"
     id="g58"
     style="color:#808080;fill:none;stroke:currentColor;stroke-width:1;stroke-linecap:butt;stroke-linejoin:miter">
    <path
       id="path56"
       d="M 63.6,164.1 H 455" />
  </g>
  <g
     transform="translate(-15.469792,-10.192)"
     id="g70"
     style="color:#000000;fill:none;stroke:currentColor;stroke-width:1;stroke-linecap:butt;stroke-linejoin:miter">
    <path
       id="path60"
       d="m 63.6,164.1 h 9 m 382.4,0 h -9" />
    <g
       id="g66"
       style="font-size:16px;font-family:Times;text-anchor:end;fill:#000000;stroke:none"
       transform="translate(55.3,168.6)">
      <text
         id="text64">
        <tspan
           id="tspan62">20</tspan>
      </text>
    </g>
    <path
       id="path68"
       d="m 63.6,154.3 h 4.5 m 386.9,0 h -4.5 M 63.6,144.5 h 4.5 m 386.9,0 h -4.5 M 63.6,134.6 h 4.5 m 386.9,0 h -4.5 M 63.6,124.8 h 4.5 m 386.9,0 h -4.5" />
  </g>
  <g
     transform="translate(-15.469792,-10.192)"
     id="g74"
     style="color:#808080;fill:none;stroke:currentColor;stroke-width:1;stroke-linecap:butt;stroke-linejoin:miter">
    <path
       id="path72"
       d="M 63.6,115 H 455" />
  </g>
  <g
     transform="translate(-15.469792,-10.192)"
     id="g86"
     style="color:#000000;fill:none;stroke:currentColor;stroke-width:1;stroke-linecap:butt;stroke-linejoin:miter">
    <path
       id="path76"
       d="m 63.6,115 h 9 m 382.4,0 h -9" />
    <g
       id="g82"
       style="font-size:16px;font-family:Times;text-anchor:end;fill:#000000;stroke:none"
       transform="translate(55.3,119.5)">
      <text
         id="text80">
        <tspan
           id="tspan78">30</tspan>
      </text>
    </g>
    <path
       id="path84"
       d="m 63.6,105.2 h 4.5 m 386.9,0 h -4.5 M 63.6,95.3 h 4.5 m 386.9,0 h -4.5 M 63.6,85.5 h 4.5 m 386.9,0 h -4.5 M 63.6,75.7 h 4.5 m 386.9,0 h -4.5" />
  </g>
  <g
     transform="translate(-15.469792,-10.192)"
     id="g90"
     style="color:#808080;fill:none;stroke:currentColor;stroke-width:1;stroke-linecap:butt;stroke-linejoin:miter">
    <path
       id="path88"
       d="M 63.6,65.8 H 455" />
  </g>
  <g
     transform="translate(-15.469792,-10.192)"
     id="g102"
     style="color:#000000;fill:none;stroke:currentColor;stroke-width:1;stroke-linecap:butt;stroke-linejoin:miter">
    <path
       id="path92"
       d="m 63.6,65.8 h 9 m 382.4,0 h -9" />
    <g
       id="g98"
       style="font-size:16px;font-family:Times;text-anchor:end;fill:#000000;stroke:none"
       transform="translate(55.3,70.3)">
      <text
         id="text96">
        <tspan
           id="tspan94">40</tspan>
      </text>
    </g>
    <path
       id="path100"
       d="m 63.6,56 h 4.5 M 455,56 h -4.5 M 63.6,46.2 h 4.5 m 386.9,0 h -4.5 M 63.6,36.4 h 4.5 m 386.9,0 h -4.5 M 63.6,26.5 h 4.5 m 386.9,0 h -4.5" />
  </g>
  <g
     transform="translate(-15.469792,-10.192)"
     id="g106"
     style="color:#808080;fill:none;stroke:currentColor;stroke-width:1;stroke-linecap:butt;stroke-linejoin:miter">
    <path
       id="path104"
       d="M 63.6,16.7 H 455" />
  </g>
  <g
     transform="translate(-15.469792,-10.192)"
     id="g116"
     style="color:#000000;fill:none;stroke:currentColor;stroke-width:1;stroke-linecap:butt;stroke-linejoin:miter">
    <path
       id="path108"
       d="m 63.6,16.7 h 9 m 382.4,0 h -9" />
    <g
       id="g114"
       style="font-size:16px;font-family:Times;text-anchor:end;fill:#000000;stroke:none"
       transform="translate(55.3,21.2)">
      <text
         id="text112">
        <tspan
           id="tspan110">50</tspan>
      </text>
    </g>
  </g>
  <g
     transform="translate(-15.469792,-10.192)"
     id="g120"
     style="color:#808080;fill:none;stroke:currentColor;stroke-width:1;stroke-linecap:butt;stroke-linejoin:miter">
    <path
       id="path118"
       d="M 63.6,262.4 V 16.7" />
  </g>
  <g
     transform="translate(-15.469792,-10.192)"
     id="g132"
     style="color:#000000;fill:none;stroke:currentColor;stroke-width:1;stroke-linecap:butt;stroke-linejoin:miter">
    <path
       id="path122"
       d="m 63.6,262.4 v -9 m 0,-236.7 v 9" />
    <g
       id="g128"
       style="font-size:16px;font-family:Times;text-anchor:middle;fill:#000000;stroke:none"
       transform="translate(63.6,284.9)">
      <text
         id="text126">
        <tspan
           id="tspan124">0</tspan>
      </text>
    </g>
    <path
       id="path130"
       d="m 102.7,262.4 v -4.5 m 0,-241.2 v 4.5" />
  </g>
  <g
     transform="translate(-15.469792,-10.192)"
     id="g136"
     style="color:#808080;fill:none;stroke:currentColor;stroke-width:1;stroke-linecap:butt;stroke-linejoin:miter">
    <path
       id="path134"
       d="M 141.9,262.4 V 16.7" />
  </g>
  <g
     transform="translate(-15.469792,-10.192)"
     id="g148"
     style="color:#000000;fill:none;stroke:currentColor;stroke-width:1;stroke-linecap:butt;stroke-linejoin:miter">
    <path
       id="path138"
       d="m 141.9,262.4 v -9 m 0,-236.7 v 9" />
    <g
       id="g144"
       style="font-size:16px;font-family:Times;text-anchor:middle;fill:#000000;stroke:none"
       transform="translate(141.9,284.9)">
      <text
         id="text142">
        <tspan
           id="tspan140">2</tspan>
      </text>
    </g>
    <path
       id="path146"
       d="m 181,262.4 v -4.5 m 0,-241.2 v 4.5" />
  </g>
  <g
     transform="translate(-15.469792,-10.192)"
     id="g152"
     style="color:#808080;fill:none;stroke:currentColor;stroke-width:1;stroke-linecap:butt;stroke-linejoin:miter">
    <path
       id="path150"
       d="M 220.2,262.4 V 16.7" />
  </g>
  <g
     transform="translate(-15.469792,-10.192)"
     id="g164"
     style="color:#000000;fill:none;stroke:currentColor;stroke-width:1;stroke-linecap:butt;stroke-linejoin:miter">
    <path
       id="path154"
       d="m 220.2,262.4 v -9 m 0,-236.7 v 9" />
    <g
       id="g160"
       style="font-size:16px;font-family:Times;text-anchor:middle;fill:#000000;stroke:none"
       transform="translate(220.2,284.9)">
      <text
         id="text158">
        <tspan
           id="tspan156">4</tspan>
      </text>
    </g>
    <path
       id="path162"
       d="m 259.3,262.4 v -4.5 m 0,-241.2 v 4.5" />
  </g>
  <g
     transform="translate(-15.469792,-10.192)"
     id="g168"
     style="color:#808080;fill:none;stroke:currentColor;stroke-width:1;stroke-linecap:butt;stroke-linejoin:miter">
    <path
       id="path166"
       d="M 298.4,262.4 V 16.7" />
  </g>
  <g
     transform="translate(-15.469792,-10.192)"
     id="g180"
     style="color:#000000;fill:none;stroke:currentColor;stroke-width:1;stroke-linecap:butt;stroke-linejoin:miter">
    <path
       id="path170"
       d="m 298.4,262.4 v -9 m 0,-236.7 v 9" />
    <g
       id="g176"
       style="font-size:16px;font-family:Times;text-anchor:middle;fill:#000000;stroke:none"
       transform="translate(298.4,284.9)">
      <text
         id="text174">
        <tspan
           id="tspan172">6</tspan>
      </text>
    </g>
    <path
       id="path178"
       d="m 337.6,262.4 v -4.5 m 0,-241.2 v 4.5" />
  </g>
  <g
     transform="translate(-15.469792,-10.192)"
     id="g184"
     style="color:#808080;fill:none;stroke:currentColor;stroke-width:1;stroke-linecap:butt;stroke-linejoin:miter">
    <path
       id="path182"
       d="M 376.7,262.4 V 16.7" />
  </g>
  <g
     transform="translate(-15.469792,-10.192)"
     id="g196"
     style="color:#000000;fill:none;stroke:currentColor;stroke-width:1;stroke-linecap:butt;stroke-linejoin:miter">
    <path
       id="path186"
       d="m 376.7,262.4 v -9 m 0,-236.7 v 9" />
    <g
       id="g192"
       style="font-size:16px;font-family:Times;text-anchor:middle;fill:#000000;stroke:none"
       transform="translate(376.7,284.9)">
      <text
         id="text190">
        <tspan
           id="tspan188">8</tspan>
      </text>
    </g>
    <path
       id="path194"
       d="m 415.9,262.4 v -4.5 m 0,-241.2 v 4.5" />
  </g>
  <g
     transform="translate(-15.469792,-10.192)"
     id="g200"
     style="color:#808080;fill:none;stroke:currentColor;stroke-width:1;stroke-linecap:butt;stroke-linejoin:miter">
    <path
       id="path198"
       d="M 455,262.4 V 16.7" />
  </g>
  <g
     transform="translate(-15.469792,-10.192)"
     id="g210"
     style="color:#000000;fill:none;stroke:currentColor;stroke-width:1;stroke-linecap:butt;stroke-linejoin:miter">
    <path
       id="path202"
       d="m 455,262.4 v -9 m 0,-236.7 v 9" />
    <g
       id="g208"
       style="font-size:16px;font-family:Times;text-anchor:middle;fill:#000000;stroke:none"
       transform="translate(455,284.9)">
      <text
         id="text206">
        <tspan
           id="tspan204">10</tspan>
      </text>
    </g>
  </g>
  <g
     transform="translate(-15.469792,-10.192)"
     id="g214"
     style="color:#808080;fill:none;stroke:currentColor;stroke-width:1;stroke-linecap:butt;stroke-linejoin:miter">
    <path
       style="stroke:#000000"
       id="path212"
       d="M 63.6,262.4 V 16.7" />
  </g>
  <rect
     id="rect977-2"
     width="118.25388"
     height="18.820246"
     x="71.360085"
     y="29.665613"
     style="fill:#ffffff;fill-opacity:0.49019608" />
  <path
     d="m 48.130208,6.508 v 245.7 H 439.53021 V 6.508 Z"
     id="path216"
     style="color:#000000;fill:none;stroke:#000000;stroke-width:1;stroke-linecap:butt;stroke-linejoin:miter" />
  <text
     y="10.130208"
     x="-129.408"
     transform="rotate(-90)"
     id="text220"
     style="color:#000000;font-style:normal;font-variant:normal;font-weight:normal;font-stretch:normal;font-size:13.33333302px;font-family:sans-serif;-inkscape-font-specification:'sans-serif, Normal';font-variant-ligatures:normal;font-variant-caps:normal;font-variant-numeric:normal;font-feature-settings:normal;text-align:center;writing-mode:lr-tb;text-anchor:middle;fill:#000000;stroke:none;stroke-width:1;stroke-linecap:butt;stroke-linejoin:miter">
    <tspan
       style="font-style:normal;font-variant:normal;font-weight:normal;font-stretch:normal;font-size:13.33333302px;font-family:sans-serif;-inkscape-font-specification:'sans-serif, Normal';font-variant-ligatures:normal;font-variant-caps:normal;font-variant-numeric:normal;font-feature-settings:normal;text-align:center;writing-mode:lr-tb;text-anchor:middle"
       id="tspan218">Drain current [arbitary unit]</tspan>
  </text>
  <text
     y="295.70801"
     x="243.8302"
     id="text226"
     style="color:#000000;font-style:normal;font-variant:normal;font-weight:normal;font-stretch:normal;font-size:13.33333302px;font-family:sans-serif;-inkscape-font-specification:'sans-serif, Normal';font-variant-ligatures:normal;font-variant-caps:normal;font-variant-numeric:normal;font-feature-settings:normal;text-align:center;writing-mode:lr-tb;text-anchor:middle;fill:#000000;stroke:none;stroke-width:1;stroke-linecap:butt;stroke-linejoin:miter">
    <tspan
       style="font-style:normal;font-variant:normal;font-weight:normal;font-stretch:normal;font-size:13.33333302px;font-family:sans-serif;-inkscape-font-specification:'sans-serif, Normal';font-variant-ligatures:normal;font-variant-caps:normal;font-variant-numeric:normal;font-feature-settings:normal;text-align:center;writing-mode:lr-tb;text-anchor:middle"
       id="tspan224">Drain to source voltage [V]</tspan>
  </text>
  <g
     transform="translate(243.83021,20.008)"
     style="color:#000000;font-size:16px;font-family:Times;text-anchor:middle;fill:#000000;stroke:none;stroke-width:1;stroke-linecap:butt;stroke-linejoin:miter"
     id="g232">
    <text
       id="text230" />
  </g>
  <rect
     id="rect977"
     width="118.25388"
     height="18.820246"
     x="265.05179"
     y="145.09645"
     style="fill:#ffffff;fill-opacity:0.49019608" />
  <text
     y="158.09433"
     x="324.48715"
     id="text238"
     style="color:#ff0000;font-style:normal;font-variant:normal;font-weight:normal;font-stretch:normal;font-size:13.33333302px;font-family:sans-serif;-inkscape-font-specification:'sans-serif, Normal';font-variant-ligatures:normal;font-variant-caps:normal;font-variant-numeric:normal;font-feature-settings:normal;text-align:center;writing-mode:lr-tb;text-anchor:middle;fill:#000000;stroke:none;stroke-width:1;stroke-linecap:butt;stroke-linejoin:miter">
    <tspan
       style="font-style:normal;font-variant:normal;font-weight:normal;font-stretch:normal;font-size:13.33333302px;font-family:sans-serif;-inkscape-font-specification:'sans-serif, Normal';font-variant-ligatures:normal;font-variant-caps:normal;font-variant-numeric:normal;font-feature-settings:normal;text-align:center;writing-mode:lr-tb;text-anchor:middle"
       id="tspan236">saturation region</tspan>
  </text>
  <text
     y="42.542439"
     x="127.68488"
     id="text244"
     style="color:#ff0000;font-style:normal;font-variant:normal;font-weight:normal;font-stretch:normal;font-size:13.33333302px;font-family:sans-serif;-inkscape-font-specification:'sans-serif, Normal';font-variant-ligatures:normal;font-variant-caps:normal;font-variant-numeric:normal;font-feature-settings:normal;text-align:center;writing-mode:lr-tb;text-anchor:middle;fill:#000000;stroke:none;stroke-width:1;stroke-linecap:butt;stroke-linejoin:miter">
    <tspan
       style="font-style:normal;font-variant:normal;font-weight:normal;font-stretch:normal;font-size:13.33333302px;font-family:sans-serif;-inkscape-font-specification:'sans-serif, Normal';font-variant-ligatures:normal;font-variant-caps:normal;font-variant-numeric:normal;font-feature-settings:normal;text-align:center;writing-mode:lr-tb;text-anchor:middle"
       id="tspan242">linear region</tspan>
  </text>
  <a
     transform="translate(-15.469792,-10.192)"
     id="a304"
     xlink:title="Plot #2">
    <g
       id="g302"
       style="color:#008000;fill:none;stroke:currentColor;stroke-width:1;stroke-linecap:butt;stroke-linejoin:miter">
      <g
         id="g256"
         style="font-size:16px;font-family:Times;text-anchor:end;fill:#000000;stroke:none"
         transform="translate(447.2,254.6)">
        <text
           id="text254">
          <tspan
             id="tspan252">1 V</tspan>
        </text>
      </g>
      <g
         id="g262"
         style="font-size:16px;font-family:Times;text-anchor:end;fill:#000000;stroke:none"
         transform="translate(447.2,239.9)">
        <text
           id="text260">
          <tspan
             id="tspan258">2 V</tspan>
        </text>
      </g>
      <g
         id="g268"
         style="font-size:16px;font-family:Times;text-anchor:end;fill:#000000;stroke:none"
         transform="translate(447.2,215.3)">
        <text
           id="text266">
          <tspan
             id="tspan264">3 V</tspan>
        </text>
      </g>
      <g
         id="g274"
         style="font-size:16px;font-family:Times;text-anchor:end;fill:#000000;stroke:none"
         transform="translate(447.2,181.4)">
        <text
           id="text272">
          <tspan
             id="tspan270">4 V</tspan>
        </text>
      </g>
      <g
         id="g280"
         style="font-size:16px;font-family:Times;text-anchor:end;fill:#000000;stroke:none"
         transform="translate(447.2,136.7)">
        <text
           id="text278">
          <tspan
             id="tspan276">5 V</tspan>
        </text>
      </g>
      <g
         id="g286"
         style="font-size:16px;font-family:Times;text-anchor:end;fill:#000000;stroke:none"
         transform="translate(447.2,82.6)">
        <text
           id="text284">
          <tspan
             id="tspan282">6 V</tspan>
        </text>
      </g>
      <g
         id="g300"
         style="font-size:16px;font-family:Times;text-anchor:end;fill:#000000;stroke:none"
         transform="translate(447.2,35.9)">
        <text
           id="text298">
          <tspan
             id="tspan288">V</tspan>
          <tspan
             style="font-size:12.80000019px"
             id="tspan290"
             dy="3.5999999pt"
             font-size="9.6pt">GS</tspan>
          <tspan
             style="font-size:16px"
             id="tspan292"
             dy="-3.5999999pt"
             font-size="12.0pt">-V</tspan>
          <tspan
             style="font-size:12.80000019px"
             id="tspan294"
             dy="3.5999999pt"
             font-size="9.6pt">TH</tspan>
          <tspan
             style="font-size:16px"
             id="tspan296"
             dy="-3.5999999pt"
             font-size="12.0pt">=7 V</tspan>
        </text>
      </g>
    </g>
  </a>
  <a
     transform="translate(-15.469792,-10.192)"
     id="a312"
     xlink:title="Plot #3">
    <g
       id="g306"
       style="color:#ffffff;fill:none;stroke:#000000;stroke-width:2;stroke-linecap:butt;stroke-linejoin:miter" />
    <g
       id="g310"
       style="color:#ff0000;fill:none;stroke:currentColor;stroke-width:2;stroke-linecap:butt;stroke-linejoin:miter">
      <path
         style="stroke:#0000ff"
         id="path308"
         d="m 63.6,262.4 1.3,-0.3 1.3,-0.3 1.3,-0.3 1.3,-0.3 1.3,-0.3 1.3,-0.3 1.3,-0.2 1.3,-0.3 1.3,-0.2 1.3,-0.2 1.4,-0.2 1.3,-0.2 1.3,-0.2 1.3,-0.2 1.3,-0.2 1.3,-0.1 1.3,-0.2 1.3,-0.1 1.3,-0.2 1.3,-0.1 1.3,-0.1 1.3,-0.1 h 1.3 l 1.3,-0.1 1.3,-0.1 h 1.3 l 1.3,-0.1 h 1.3 0.7 0.6 0.7 0.6 0.7 0.6 0.7 0.6 1.4 1.3 1.3 1.3 1.3 1.3 1.3 1.3 1.3 1.3 1.3 1.3 1.3 1.3 1.3 1.3 1.3 1.3 1.3 1.3 1.3 1.4 1.3 1.3 1.3 1.3 1.3 1.3 1.3 1.3 1.3 1.3 1.3 1.3 1.3 1.3 1.3 1.3 1.3 1.3 1.3 1.3 1.4 1.3 1.3 1.3 1.3 1.3 1.3 1.3 1.3 1.3 1.3 1.3 1.3 1.3 1.3 1.3 1.3 1.3 1.3 1.3 1.3 1.3 1.4 1.3 1.3 1.3 1.3 1.3 1.3 1.3 1.3 1.3 1.3 1.3 1.3 1.3 1.3 1.3 1.3 1.3 1.3 1.3 1.3 1.4 1.3 1.3 1.3 1.3 1.3 1.3 1.3 1.3 1.3 1.3 1.3 1.3 1.3 1.3 1.3 1.3 1.3 1.3 1.3 1.3 1.3 1.4 1.3 1.3 1.3 1.3 1.3 1.3 1.3 1.3 1.3 1.3 1.3 1.3 1.3 1.3 1.3 1.3 1.3 1.3 1.3 1.3 1.4 1.3 1.3 1.3 1.3 1.3 1.3 1.3 1.3 1.3 1.3 1.3 1.3 1.3 1.3 1.3 1.3 1.3 1.3 1.3 1.3 1.3 1.4 1.3 1.3 1.3 1.3 1.3 1.3 1.3 1.3 1.3 1.3 1.3 1.3 1.3 1.3 1.3 1.3 1.3 1.3 1.3 1.3 1.4 1.3 1.3 1.3 1.3 1.3 1.3 1.3 1.3 1.3 1.3 1.3 1.3 1.3 1.3 1.3 1.3 1.3 1.3 1.3 1.3 1.4 1.3 1.3 1.3 1.3 1.3 1.3 1.3 1.3 1.3 1.3 1.3 1.3 1.3 1.3 1.3 1.3 1.3 1.3 1.3 1.3 1.3 1.4 1.3 1.3 1.3 1.3 1.3 1.3 1.3 1.3 1.3 1.3 1.3 1.3 1.3 1.3 1.3 1.3 1.3 1.3 1.3 1.3 1.4 1.3 1.3 1.3 1.3 1.3 1.3 1.3 1.3 1.3 1.3 1.3 1.3 1.3 1.3 1.3 1.3 1.3 1.3 1.3 1.3 1.3 1.4 1.3 1.3 1.3 1.3 1.3 1.3 1.3 1.3 1.3 1.3" />
    </g>
  </a>
  <a
     transform="translate(-15.469792,-10.192)"
     id="a318"
     xlink:title="Plot #4">
    <g
       id="g316"
       style="color:#ff0000;fill:none;stroke:currentColor;stroke-width:2;stroke-linecap:butt;stroke-linejoin:miter">
      <path
         style="stroke:#0000ff"
         id="path314"
         d="m 63.6,262.4 1.3,-0.6 1.3,-0.7 1.3,-0.6 1.3,-0.6 1.3,-0.6 1.3,-0.6 1.3,-0.6 1.3,-0.6 1.3,-0.6 1.3,-0.5 1.4,-0.5 1.3,-0.6 1.3,-0.5 1.3,-0.5 1.3,-0.5 1.3,-0.5 1.3,-0.5 1.3,-0.4 1.3,-0.5 1.3,-0.4 1.3,-0.5 1.3,-0.4 1.3,-0.4 1.3,-0.4 1.3,-0.4 1.3,-0.3 1.3,-0.4 1.3,-0.4 1.3,-0.3 1.3,-0.3 1.3,-0.4 1.3,-0.3 1.4,-0.3 1.3,-0.3 1.3,-0.2 1.3,-0.3 1.3,-0.3 1.3,-0.2 1.3,-0.2 1.3,-0.3 1.3,-0.2 1.3,-0.2 1.3,-0.2 1.3,-0.2 1.3,-0.1 1.3,-0.2 1.3,-0.1 1.3,-0.2 1.3,-0.1 1.3,-0.1 1.3,-0.1 1.3,-0.1 1.3,-0.1 1.4,-0.1 h 1.3 l 1.3,-0.1 h 1.3 1.3 l 1.3,-0.1 h 1.3 1.3 1.3 1.3 1.3 1.3 1.3 1.3 1.3 1.3 1.3 1.3 1.3 1.3 1.3 1.4 1.3 1.3 1.3 1.3 1.3 1.3 1.3 1.3 1.3 1.3 1.3 1.3 1.3 1.3 1.3 1.3 1.3 1.3 1.3 1.3 1.3 1.4 1.3 1.3 1.3 1.3 1.3 1.3 1.3 1.3 1.3 1.3 1.3 1.3 1.3 1.3 1.3 1.3 1.3 1.3 1.3 1.3 1.4 1.3 1.3 1.3 1.3 1.3 1.3 1.3 1.3 1.3 1.3 1.3 1.3 1.3 1.3 1.3 1.3 1.3 1.3 1.3 1.3 1.3 1.4 1.3 1.3 1.3 1.3 1.3 1.3 1.3 1.3 1.3 1.3 1.3 1.3 1.3 1.3 1.3 1.3 1.3 1.3 1.3 1.3 1.4 1.3 1.3 1.3 1.3 1.3 1.3 1.3 1.3 1.3 1.3 1.3 1.3 1.3 1.3 1.3 1.3 1.3 1.3 1.3 1.3 1.3 1.4 1.3 1.3 1.3 1.3 1.3 1.3 1.3 1.3 1.3 1.3 1.3 1.3 1.3 1.3 1.3 1.3 1.3 1.3 1.3 1.3 1.4 1.3 1.3 1.3 1.3 1.3 1.3 1.3 1.3 1.3 1.3 1.3 1.3 1.3 1.3 1.3 1.3 1.3 1.3 1.3 1.3 1.4 1.3 1.3 1.3 1.3 1.3 1.3 1.3 1.3 1.3 1.3 1.3 1.3 1.3 1.3 1.3 1.3 1.3 1.3 1.3 1.3 1.3 1.4 1.3 1.3 1.3 1.3 1.3 1.3 1.3 1.3 1.3 1.3 1.3 1.3 1.3 1.3 1.3 1.3 1.3 1.3 1.3 1.3 1.4 1.3 1.3 1.3 1.3 1.3 1.3 1.3 1.3 1.3 1.3 1.3 1.3 1.3 1.3 1.3 1.3 1.3 1.3 1.3 1.3 1.3 1.4 1.3 1.3 1.3 1.3 1.3 1.3 1.3 1.3 1.3 1.3" />
    </g>
  </a>
  <a
     transform="translate(-15.469792,-10.192)"
     id="a324"
     xlink:title="Plot #5">
    <g
       id="g322"
       style="color:#ff0000;fill:none;stroke:currentColor;stroke-width:2;stroke-linecap:butt;stroke-linejoin:miter">
      <path
         style="stroke:#0000ff"
         id="path320"
         d="m 63.6,262.4 1.3,-1 1.3,-0.9 1.3,-1 1.3,-0.9 1.3,-1 1.3,-0.9 1.3,-0.9 1.3,-0.9 1.3,-0.9 1.3,-0.9 1.4,-0.9 1.3,-0.8 1.3,-0.9 1.3,-0.8 1.3,-0.8 1.3,-0.8 1.3,-0.8 1.3,-0.8 1.3,-0.8 1.3,-0.8 1.3,-0.7 1.3,-0.8 1.3,-0.7 1.3,-0.7 1.3,-0.8 1.3,-0.7 1.3,-0.7 1.3,-0.6 1.3,-0.7 1.3,-0.7 1.3,-0.6 1.3,-0.7 1.4,-0.6 1.3,-0.6 1.3,-0.6 1.3,-0.6 1.3,-0.6 1.3,-0.6 1.3,-0.5 1.3,-0.6 1.3,-0.5 1.3,-0.5 1.3,-0.6 1.3,-0.5 1.3,-0.5 1.3,-0.5 1.3,-0.4 1.3,-0.5 1.3,-0.4 1.3,-0.5 1.3,-0.4 1.3,-0.4 1.3,-0.5 1.4,-0.3 1.3,-0.4 1.3,-0.4 1.3,-0.4 1.3,-0.3 1.3,-0.4 1.3,-0.3 1.3,-0.3 1.3,-0.3 1.3,-0.3 1.3,-0.3 1.3,-0.3 1.3,-0.3 1.3,-0.2 1.3,-0.3 1.3,-0.2 1.3,-0.2 1.3,-0.3 1.3,-0.2 1.3,-0.1 1.3,-0.2 1.4,-0.2 1.3,-0.2 1.3,-0.1 1.3,-0.1 1.3,-0.2 1.3,-0.1 1.3,-0.1 1.3,-0.1 1.3,-0.1 h 1.3 l 1.3,-0.1 h 1.3 l 1.3,-0.1 h 1.3 0.7 0.6 0.7 0.6 0.7 0.6 0.7 0.6 1.3 1.3 1.3 1.3 1.4 1.3 1.3 1.3 1.3 1.3 1.3 1.3 1.3 1.3 1.3 1.3 1.3 1.3 1.3 1.3 1.3 1.3 1.3 1.3 1.3 1.4 1.3 1.3 1.3 1.3 1.3 1.3 1.3 1.3 1.3 1.3 1.3 1.3 1.3 1.3 1.3 1.3 1.3 1.3 1.3 1.3 1.3 1.4 1.3 1.3 1.3 1.3 1.3 1.3 1.3 1.3 1.3 1.3 1.3 1.3 1.3 1.3 1.3 1.3 1.3 1.3 1.3 1.3 1.4 1.3 1.3 1.3 1.3 1.3 1.3 1.3 1.3 1.3 1.3 1.3 1.3 1.3 1.3 1.3 1.3 1.3 1.3 1.3 1.3 1.3 1.4 1.3 1.3 1.3 1.3 1.3 1.3 1.3 1.3 1.3 1.3 1.3 1.3 1.3 1.3 1.3 1.3 1.3 1.3 1.3 1.3 1.4 1.3 1.3 1.3 1.3 1.3 1.3 1.3 1.3 1.3 1.3 1.3 1.3 1.3 1.3 1.3 1.3 1.3 1.3 1.3 1.3 1.4 1.3 1.3 1.3 1.3 1.3 1.3 1.3 1.3 1.3 1.3 1.3 1.3 1.3 1.3 1.3 1.3 1.3 1.3 1.3 1.3 1.3 1.4 1.3 1.3 1.3 1.3 1.3 1.3 1.3 1.3 1.3 1.3 1.3 1.3 1.3 1.3 1.3 1.3 1.3 1.3 1.3 1.3 1.4 1.3 1.3 1.3 1.3 1.3 1.3 1.3 1.3 1.3 1.3 1.3 1.3 1.3 1.3 1.3 1.3 1.3 1.3 1.3 1.3 1.3 1.4 1.3 1.3 1.3 1.3 1.3 1.3 1.3 1.3 1.3 1.3" />
    </g>
  </a>
  <a
     transform="translate(-15.469792,-10.192)"
     id="a330"
     xlink:title="Plot #6">
    <g
       id="g328"
       style="color:#ff0000;fill:none;stroke:currentColor;stroke-width:2;stroke-linecap:butt;stroke-linejoin:miter">
      <path
         style="stroke:#0000ff"
         id="path326"
         d="m 63.6,262.4 1.3,-1.3 1.3,-1.3 1.3,-1.3 1.3,-1.3 1.3,-1.2 1.3,-1.3 1.3,-1.2 1.3,-1.2 1.3,-1.3 1.3,-1.2 1.4,-1.2 1.3,-1.1 1.3,-1.2 1.3,-1.2 1.3,-1.1 1.3,-1.2 1.3,-1.1 1.3,-1.1 1.3,-1.1 1.3,-1.1 1.3,-1.1 1.3,-1.1 1.3,-1.1 1.3,-1 1.3,-1 1.3,-1.1 1.3,-1 1.3,-1 1.3,-1 1.3,-1 1.3,-1 1.3,-0.9 1.4,-1 1.3,-0.9 1.3,-1 1.3,-0.9 1.3,-0.9 1.3,-0.9 1.3,-0.9 1.3,-0.9 1.3,-0.8 1.3,-0.9 1.3,-0.9 1.3,-0.8 1.3,-0.8 1.3,-0.8 1.3,-0.8 1.3,-0.8 1.3,-0.8 1.3,-0.8 1.3,-0.7 1.3,-0.8 1.3,-0.7 1.4,-0.7 1.3,-0.8 1.3,-0.7 1.3,-0.7 1.3,-0.6 1.3,-0.7 1.3,-0.7 1.3,-0.6 1.3,-0.7 1.3,-0.6 1.3,-0.6 1.3,-0.6 1.3,-0.6 1.3,-0.6 1.3,-0.6 1.3,-0.5 1.3,-0.6 1.3,-0.5 1.3,-0.5 1.3,-0.6 1.3,-0.5 1.4,-0.5 1.3,-0.5 1.3,-0.4 1.3,-0.5 1.3,-0.4 1.3,-0.5 1.3,-0.4 1.3,-0.4 1.3,-0.4 1.3,-0.4 1.3,-0.4 1.3,-0.4 1.3,-0.4 1.3,-0.3 1.3,-0.4 1.3,-0.3 1.3,-0.3 1.3,-0.3 1.3,-0.3 1.3,-0.3 1.3,-0.3 1.3,-0.3 1.4,-0.2 1.3,-0.3 1.3,-0.2 1.3,-0.2 1.3,-0.3 1.3,-0.2 1.3,-0.1 1.3,-0.2 1.3,-0.2 1.3,-0.2 1.3,-0.1 1.3,-0.1 1.3,-0.2 1.3,-0.1 1.3,-0.1 1.3,-0.1 1.3,-0.1 h 1.3 l 1.3,-0.1 h 1.3 l 1.3,-0.1 h 1.4 1.3 1.3 1.3 1.3 1.3 1.3 1.3 1.3 1.3 1.3 1.3 1.3 1.3 1.3 1.3 1.3 1.3 1.3 1.3 1.3 1.3 1.4 1.3 1.3 1.3 1.3 1.3 1.3 1.3 1.3 1.3 1.3 1.3 1.3 1.3 1.3 1.3 1.3 1.3 1.3 1.3 1.3 1.4 1.3 1.3 1.3 1.3 1.3 1.3 1.3 1.3 1.3 1.3 1.3 1.3 1.3 1.3 1.3 1.3 1.3 1.3 1.3 1.3 1.3 1.4 1.3 1.3 1.3 1.3 1.3 1.3 1.3 1.3 1.3 1.3 1.3 1.3 1.3 1.3 1.3 1.3 1.3 1.3 1.3 1.3 1.4 1.3 1.3 1.3 1.3 1.3 1.3 1.3 1.3 1.3 1.3 1.3 1.3 1.3 1.3 1.3 1.3 1.3 1.3 1.3 1.3 1.4 1.3 1.3 1.3 1.3 1.3 1.3 1.3 1.3 1.3 1.3 1.3 1.3 1.3 1.3 1.3 1.3 1.3 1.3 1.3 1.3 1.3 1.4 1.3 1.3 1.3 1.3 1.3 1.3 1.3 1.3 1.3 1.3 1.3 1.3 1.3 1.3 1.3 1.3 1.3 1.3 1.3 1.3 1.4 1.3 1.3 1.3 1.3 1.3 1.3 1.3 1.3 1.3 1.3 1.3 1.3 1.3 1.3 1.3 1.3 1.3 1.3 1.3 1.3 1.3 1.4 1.3 1.3 1.3 1.3 1.3 1.3 1.3 1.3 1.3 1.3" />
    </g>
  </a>
  <a
     transform="translate(-15.469792,-10.192)"
     id="a336"
     xlink:title="Plot #7">
    <g
       id="g334"
       style="color:#ff0000;fill:none;stroke:currentColor;stroke-width:2;stroke-linecap:butt;stroke-linejoin:miter">
      <path
         style="stroke:#0000ff"
         id="path332"
         d="m 63.6,262.4 1.3,-1.6 1.3,-1.7 1.3,-1.6 1.3,-1.6 1.3,-1.6 1.3,-1.5 1.3,-1.6 1.3,-1.6 1.3,-1.5 1.3,-1.5 1.4,-1.6 1.3,-1.5 1.3,-1.5 1.3,-1.5 1.3,-1.4 1.3,-1.5 1.3,-1.5 1.3,-1.4 1.3,-1.5 1.3,-1.4 1.3,-1.4 1.3,-1.4 1.3,-1.4 1.3,-1.4 1.3,-1.3 1.3,-1.4 1.3,-1.3 1.3,-1.4 1.3,-1.3 1.3,-1.3 1.3,-1.3 1.3,-1.3 1.4,-1.3 1.3,-1.3 1.3,-1.2 1.3,-1.3 1.3,-1.2 1.3,-1.3 1.3,-1.2 1.3,-1.2 1.3,-1.2 1.3,-1.2 1.3,-1.1 1.3,-1.2 1.3,-1.2 1.3,-1.1 1.3,-1.1 1.3,-1.1 1.3,-1.2 1.3,-1.1 1.3,-1 1.3,-1.1 1.3,-1.1 1.4,-1 1.3,-1.1 1.3,-1 1.3,-1 1.3,-1 1.3,-1 1.3,-1 1.3,-1 1.3,-1 1.3,-0.9 1.3,-1 1.3,-0.9 1.3,-0.9 1.3,-0.9 1.3,-0.9 1.3,-0.9 1.3,-0.9 1.3,-0.9 1.3,-0.8 1.3,-0.9 1.3,-0.8 1.4,-0.8 1.3,-0.9 1.3,-0.8 1.3,-0.7 1.3,-0.8 1.3,-0.8 1.3,-0.8 1.3,-0.7 1.3,-0.7 1.3,-0.8 1.3,-0.7 1.3,-0.7 1.3,-0.7 1.3,-0.7 1.3,-0.6 1.3,-0.7 1.3,-0.6 1.3,-0.7 1.3,-0.6 1.3,-0.6 1.3,-0.6 1.3,-0.6 1.4,-0.6 1.3,-0.6 1.3,-0.5 1.3,-0.6 1.3,-0.5 1.3,-0.6 1.3,-0.5 1.3,-0.5 1.3,-0.5 1.3,-0.5 1.3,-0.5 1.3,-0.4 1.3,-0.5 1.3,-0.4 1.3,-0.4 1.3,-0.5 1.3,-0.4 1.3,-0.4 1.3,-0.4 1.3,-0.3 1.3,-0.4 1.4,-0.4 1.3,-0.3 1.3,-0.3 1.3,-0.4 1.3,-0.3 1.3,-0.3 1.3,-0.3 1.3,-0.2 1.3,-0.3 1.3,-0.3 1.3,-0.2 1.3,-0.2 1.3,-0.3 1.3,-0.2 1.3,-0.2 1.3,-0.2 1.3,-0.2 1.3,-0.1 1.3,-0.2 1.3,-0.1 1.3,-0.2 1.3,-0.1 1.4,-0.1 1.3,-0.1 1.3,-0.1 1.3,-0.1 1.3,-0.1 h 1.3 l 1.3,-0.1 h 1.3 1.3 0.6 0.7 0.6 l 0.7,-0.1 h 0.7 0.6 0.7 0.6 1.3 1.3 1.3 1.3 1.3 1.3 1.3 1.3 1.4 1.3 1.3 1.3 1.3 1.3 1.3 1.3 1.3 1.3 1.3 1.3 1.3 1.3 1.3 1.3 1.3 1.3 1.3 1.3 1.3 1.3 1.4 1.3 1.3 1.3 1.3 1.3 1.3 1.3 1.3 1.3 1.3 1.3 1.3 1.3 1.3 1.3 1.3 1.3 1.3 1.3 1.3 1.4 1.3 1.3 1.3 1.3 1.3 1.3 1.3 1.3 1.3 1.3 1.3 1.3 1.3 1.3 1.3 1.3 1.3 1.3 1.3 1.3 1.4 1.3 1.3 1.3 1.3 1.3 1.3 1.3 1.3 1.3 1.3 1.3 1.3 1.3 1.3 1.3 1.3 1.3 1.3 1.3 1.3 1.3 1.4 1.3 1.3 1.3 1.3 1.3 1.3 1.3 1.3 1.3 1.3 1.3 1.3 1.3 1.3 1.3 1.3 1.3 1.3 1.3 1.3 1.4 1.3 1.3 1.3 1.3 1.3 1.3 1.3 1.3 1.3 1.3 1.3 1.3 1.3 1.3 1.3 1.3 1.3 1.3 1.3 1.3 1.3 1.4 1.3 1.3 1.3 1.3 1.3 1.3 1.3 1.3 1.3 1.3" />
    </g>
  </a>
  <a
     transform="translate(-15.469792,-10.192)"
     id="a342"
     xlink:title="Plot #8">
    <g
       id="g340"
       style="color:#ff0000;fill:none;stroke:currentColor;stroke-width:2;stroke-linecap:butt;stroke-linejoin:miter">
      <path
         style="stroke:#0000ff"
         id="path338"
         d="m 63.6,262.4 1.3,-2 1.3,-1.9 1.3,-1.9 1.3,-2 1.3,-1.9 1.3,-1.9 1.3,-1.9 1.3,-1.9 1.3,-1.8 1.3,-1.9 1.4,-1.9 1.3,-1.8 1.3,-1.8 1.3,-1.8 1.3,-1.9 1.3,-1.8 1.3,-1.7 1.3,-1.8 1.3,-1.8 1.3,-1.7 1.3,-1.8 1.3,-1.7 1.3,-1.7 1.3,-1.7 1.3,-1.7 1.3,-1.7 1.3,-1.7 1.3,-1.7 1.3,-1.6 1.3,-1.7 1.3,-1.6 1.3,-1.6 1.4,-1.6 1.3,-1.6 1.3,-1.6 1.3,-1.6 1.3,-1.6 1.3,-1.5 1.3,-1.6 1.3,-1.5 1.3,-1.5 1.3,-1.5 1.3,-1.5 1.3,-1.5 1.3,-1.5 1.3,-1.5 1.3,-1.4 1.3,-1.5 1.3,-1.4 1.3,-1.4 1.3,-1.4 1.3,-1.4 1.3,-1.4 1.4,-1.4 1.3,-1.4 1.3,-1.4 1.3,-1.3 1.3,-1.3 1.3,-1.4 1.3,-1.3 1.3,-1.3 1.3,-1.3 1.3,-1.3 1.3,-1.2 1.3,-1.3 1.3,-1.2 1.3,-1.3 1.3,-1.2 1.3,-1.2 1.3,-1.2 1.3,-1.2 1.3,-1.2 1.3,-1.2 1.3,-1.2 1.4,-1.1 1.3,-1.1 1.3,-1.2 1.3,-1.1 1.3,-1.1 1.3,-1.1 1.3,-1.1 1.3,-1.1 1.3,-1 1.3,-1.1 1.3,-1 1.3,-1.1 1.3,-1 1.3,-1 1.3,-1 1.3,-1 1.3,-1 1.3,-0.9 1.3,-1 1.3,-0.9 1.3,-1 1.3,-0.9 1.4,-0.9 1.3,-0.9 1.3,-0.9 1.3,-0.9 1.3,-0.8 1.3,-0.9 1.3,-0.8 1.3,-0.9 1.3,-0.8 1.3,-0.8 1.3,-0.8 1.3,-0.8 1.3,-0.8 1.3,-0.8 1.3,-0.7 1.3,-0.8 1.3,-0.7 1.3,-0.7 1.3,-0.7 1.3,-0.7 1.3,-0.7 1.4,-0.7 1.3,-0.7 1.3,-0.6 1.3,-0.7 1.3,-0.6 1.3,-0.7 1.3,-0.6 1.3,-0.6 1.3,-0.6 1.3,-0.6 1.3,-0.5 1.3,-0.6 1.3,-0.6 1.3,-0.5 1.3,-0.5 1.3,-0.5 1.3,-0.6 1.3,-0.4 1.3,-0.5 1.3,-0.5 1.3,-0.5 1.3,-0.4 1.4,-0.5 1.3,-0.4 1.3,-0.4 1.3,-0.4 1.3,-0.4 1.3,-0.4 1.3,-0.4 1.3,-0.4 1.3,-0.3 1.3,-0.4 1.3,-0.3 1.3,-0.3 1.3,-0.3 1.3,-0.3 1.3,-0.3 1.3,-0.3 1.3,-0.3 1.3,-0.2 1.3,-0.3 1.3,-0.2 1.3,-0.2 1.4,-0.2 1.3,-0.2 1.3,-0.2 1.3,-0.2 1.3,-0.2 1.3,-0.1 1.3,-0.2 1.3,-0.1 1.3,-0.1 1.3,-0.2 1.3,-0.1 1.3,-0.1 h 1.3 l 1.3,-0.1 1.3,-0.1 h 1.3 l 1.3,-0.1 h 1.3 1.3 1.3 1.3 1.3 1.4 1.3 1.3 1.3 1.3 1.3 1.3 1.3 1.3 1.3 1.3 1.3 1.3 1.3 1.3 1.3 1.3 1.3 1.3 1.3 1.3 1.4 1.3 1.3 1.3 1.3 1.3 1.3 1.3 1.3 1.3 1.3 1.3 1.3 1.3 1.3 1.3 1.3 1.3 1.3 1.3 1.3 1.4 1.3 1.3 1.3 1.3 1.3 1.3 1.3 1.3 1.3 1.3 1.3 1.3 1.3 1.3 1.3 1.3 1.3 1.3 1.3 1.3 1.3 1.4 1.3 1.3 1.3 1.3 1.3 1.3 1.3 1.3 1.3 1.3 1.3 1.3 1.3 1.3 1.3 1.3 1.3 1.3 1.3 1.3 1.4 1.3 1.3 1.3 1.3 1.3 1.3 1.3 1.3 1.3 1.3 1.3 1.3 1.3 1.3 1.3 1.3 1.3 1.3 1.3 1.3 1.3 1.4 1.3 1.3 1.3 1.3 1.3 1.3 1.3 1.3 1.3 1.3" />
    </g>
  </a>
  <a
     transform="translate(-15.469792,-10.192)"
     id="a348"
     xlink:title="Plot #9">
    <g
       id="g346"
       style="color:#ff0000;fill:none;stroke:currentColor;stroke-width:2;stroke-linecap:butt;stroke-linejoin:miter">
      <path
         style="stroke:#0000ff"
         id="path344"
         d="m 63.6,262.4 1.3,-2.3 1.3,-2.3 1.3,-2.2 1.3,-2.3 1.3,-2.2 1.3,-2.3 1.3,-2.2 1.3,-2.2 1.3,-2.2 1.3,-2.2 1.4,-2.2 1.3,-2.1 1.3,-2.2 1.3,-2.1 1.3,-2.2 1.3,-2.1 1.3,-2.1 1.3,-2.1 1.3,-2.1 1.3,-2.1 1.3,-2 1.3,-2.1 1.3,-2.1 1.3,-2 1.3,-2 1.3,-2 1.3,-2 1.3,-2 1.3,-2 1.3,-2 1.3,-1.9 1.3,-2 1.4,-1.9 1.3,-2 1.3,-1.9 1.3,-1.9 1.3,-1.9 1.3,-1.9 1.3,-1.8 1.3,-1.9 1.3,-1.8 1.3,-1.9 1.3,-1.8 1.3,-1.8 1.3,-1.8 1.3,-1.8 1.3,-1.8 1.3,-1.8 1.3,-1.8 1.3,-1.7 1.3,-1.8 1.3,-1.7 1.3,-1.7 1.4,-1.7 1.3,-1.7 1.3,-1.7 1.3,-1.7 1.3,-1.6 1.3,-1.7 1.3,-1.6 1.3,-1.7 1.3,-1.6 1.3,-1.6 1.3,-1.6 1.3,-1.6 1.3,-1.6 1.3,-1.5 1.3,-1.6 1.3,-1.5 1.3,-1.6 1.3,-1.5 1.3,-1.5 1.3,-1.5 1.3,-1.5 1.4,-1.5 1.3,-1.4 1.3,-1.5 1.3,-1.5 1.3,-1.4 1.3,-1.4 1.3,-1.4 1.3,-1.4 1.3,-1.4 1.3,-1.4 1.3,-1.4 1.3,-1.3 1.3,-1.4 1.3,-1.3 1.3,-1.3 1.3,-1.4 1.3,-1.3 1.3,-1.3 1.3,-1.2 1.3,-1.3 1.3,-1.3 1.3,-1.2 1.4,-1.3 1.3,-1.2 1.3,-1.2 1.3,-1.2 1.3,-1.2 1.3,-1.2 1.3,-1.2 1.3,-1.1 1.3,-1.2 1.3,-1.1 1.3,-1.2 1.3,-1.1 1.3,-1.1 1.3,-1.1 1.3,-1.1 1.3,-1 1.3,-1.1 1.3,-1.1 1.3,-1 1.3,-1 1.3,-1.1 1.4,-1 1.3,-1 1.3,-1 1.3,-0.9 1.3,-1 1.3,-1 1.3,-0.9 1.3,-0.9 1.3,-1 1.3,-0.9 1.3,-0.9 1.3,-0.9 1.3,-0.8 1.3,-0.9 1.3,-0.9 1.3,-0.8 1.3,-0.8 1.3,-0.9 1.3,-0.8 1.3,-0.8 1.3,-0.8 1.3,-0.8 1.4,-0.7 1.3,-0.8 1.3,-0.7 1.3,-0.8 1.3,-0.7 1.3,-0.7 1.3,-0.7 1.3,-0.7 1.3,-0.7 1.3,-0.7 1.3,-0.6 1.3,-0.7 1.3,-0.6 1.3,-0.6 1.3,-0.7 1.3,-0.6 1.3,-0.6 1.3,-0.5 1.3,-0.6 1.3,-0.6 1.3,-0.5 1.4,-0.6 1.3,-0.5 1.3,-0.5 1.3,-0.5 1.3,-0.5 1.3,-0.5 1.3,-0.5 1.3,-0.5 1.3,-0.4 1.3,-0.5 1.3,-0.4 1.3,-0.4 1.3,-0.4 1.3,-0.4 1.3,-0.4 1.3,-0.4 1.3,-0.3 1.3,-0.4 1.3,-0.3 1.3,-0.4 1.3,-0.3 1.3,-0.3 1.4,-0.3 1.3,-0.3 1.3,-0.3 1.3,-0.2 1.3,-0.3 1.3,-0.2 1.3,-0.3 1.3,-0.2 1.3,-0.2 1.3,-0.2 1.3,-0.2 1.3,-0.2 1.3,-0.2 1.3,-0.1 1.3,-0.2 1.3,-0.1 1.3,-0.1 1.3,-0.1 1.3,-0.1 1.3,-0.1 1.3,-0.1 1.4,-0.1 h 1.3 l 1.3,-0.1 h 1.3 l 1.3,-0.1 h 0.6 0.7 0.6 0.7 0.6 0.7 0.6 0.7 1.3 1.3 1.3 1.3 1.3 1.3 1.3 1.3 1.3 1.3 1.3 1.3 1.4 1.3 1.3 1.3 1.3 1.3 1.3 1.3 1.3 1.3 1.3 1.3 1.3 1.3 1.3 1.3 1.3 1.3 1.3 1.3 1.3 1.3 1.4 1.3 1.3 1.3 1.3 1.3 1.3 1.3 1.3 1.3 1.3 1.3 1.3 1.3 1.3 1.3 1.3 1.3 1.3 1.3 1.3 1.4 1.3 1.3 1.3 1.3 1.3 1.3 1.3 1.3 1.3 1.3 1.3 1.3 1.3 1.3 1.3 1.3 1.3 1.3 1.3 1.3 1.3 1.4 1.3 1.3 1.3 1.3 1.3 1.3 1.3 1.3 1.3 1.3" />
    </g>
  </a>
  <a
     transform="translate(-15.469792,-10.192)"
     id="a356"
     xlink:title="Plot #10">
    <g
       id="g350"
       style="color:#ffffff;fill:none;stroke:#0000ff;stroke-width:1;stroke-linecap:butt;stroke-linejoin:miter" />
    <g
       id="g354"
       style="color:#808080;fill:none;stroke:currentColor;stroke-width:1;stroke-linecap:butt;stroke-linejoin:miter">
      <path
         style="stroke:#ff0000"
         id="path352"
         d="m 63.6,262.4 9.8,-0.3 9.8,-0.9 9.8,-1.6 9.7,-2.1 9.8,-2.8 9.8,-3.4 9.8,-3.9 9.8,-4.7 9.8,-5.2 9.8,-5.8 9.7,-6.5 9.8,-7 9.8,-7.7 9.8,-8.3 9.8,-8.9 9.8,-9.5 9.7,-10.2 9.8,-10.7 9.8,-11.4 9.8,-12 9.8,-12.5 9.8,-13.2 9.8,-13.9 9.7,-14.4 9.8,-15.1 9.8,-15.6 9.8,-16.3 9.8,-16.9 2.7,-4.9" />
    </g>
  </a>
  <g
     transform="translate(-15.469792,-10.192)"
     id="g360"
     style="color:#000000;fill:none;stroke:currentColor;stroke-width:1;stroke-linecap:butt;stroke-linejoin:miter">
    <path
       id="path358"
       d="M 63.6,16.7 V 262.4 H 455 V 16.7 Z" />
  </g>
</svg>
